<svg width="4417" height="2272" xmlns="http://www.w3.org/2000/svg" xmlns:xlink="http://www.w3.org/1999/xlink" xml:space="preserve" overflow="hidden"><g><rect x="0" y="0" width="4417" height="2272" fill="#FFFFFF"/><g><path d="M362 1758.06 4250 1758.06M362 1501.05 4250 1501.05M362 1244.04 4250 1244.04M362 987.032 4250 987.032M362 731.024 4250 731.024M362 474.016 4250 474.016M362 217 4250 217" stroke="#F2F2F2" stroke-width="2.29167" stroke-linejoin="round" stroke-miterlimit="10" fill="none"/></g><g><path d="M918.03 217 918.03 2014M1473.05 217 1473.05 2014M2028.07 217 2028.07 2014M2584.08 217 2584.08 2014M3139.1 217 3139.1 2014M3694.12 217 3694.12 2014M4250 217 4250 2014" stroke="#F2F2F2" stroke-width="2.29167" stroke-linejoin="round" stroke-miterlimit="10" fill="none"/></g><g><path d="M0 0 0.000360892 1797" stroke="#000000" stroke-width="3.4375" stroke-linejoin="round" stroke-miterlimit="10" fill="none" fill-rule="evenodd" transform="matrix(1 0 0 -1 362.5 2014.5)"/></g><g><path d="M362.5 2014.5 4250.5 2014.5" stroke="#000000" stroke-width="3.4375" stroke-linejoin="round" stroke-miterlimit="10" fill="none" fill-rule="evenodd"/></g><g><path d="M501 1923C713.897 1904.3 986.962 1877.94 1139.69 1866.89 1278.27 1856.86 1320.8 1874.46 1417.39 1856.71 1523.83 1837.14 1658.05 1782.64 1778.39 1749.48 1898.72 1716.32 2037.57 1698.84 2139.39 1657.75 2241.21 1616.66 2292.12 1572.32 2389.31 1502.96 2486.5 1433.59 2629.98 1305.44 2722.54 1241.57 2815.1 1177.7 2898.41 1159.78 2944.69 1119.73 2980.13 1089.07 2957.71 1051 3000.23 1001.3 3055.77 936.392 3176.1 814.458 3277.93 730.299 3379.75 646.14 3550.99 558.224 3611.16 496.341 3660 446.103 3631.41 396.164 3638.93 359" stroke="#000000" stroke-width="5.72917" stroke-linecap="round" stroke-linejoin="round" stroke-miterlimit="10" fill="none"/></g><g><path d="M510 1923C510 1927.97 505.97 1932 501 1932 496.029 1932 492 1927.97 492 1923 492 1918.03 496.029 1914 501 1914 505.97 1914 510 1918.03 510 1923Z"/><path d="M1149 1867C1149 1871.97 1144.97 1876 1140 1876 1135.03 1876 1131 1871.97 1131 1867 1131 1862.03 1135.03 1858 1140 1858 1144.97 1858 1149 1862.03 1149 1867Z"/><path d="M1426 1857C1426 1861.97 1421.97 1866 1417 1866 1412.03 1866 1408 1861.97 1408 1857 1408 1852.03 1412.03 1848 1417 1848 1421.97 1848 1426 1852.03 1426 1857Z"/><path d="M1787 1750C1787 1754.97 1782.97 1759 1778 1759 1773.03 1759 1769 1754.97 1769 1750 1769 1745.03 1773.03 1741 1778 1741 1782.97 1741 1787 1745.03 1787 1750Z"/><path d="M2148 1658C2148 1662.97 2143.97 1667 2139 1667 2134.03 1667 2130 1662.97 2130 1658 2130 1653.03 2134.03 1649 2139 1649 2143.97 1649 2148 1653.03 2148 1658Z"/><path d="M2398 1503C2398 1507.97 2393.97 1512 2389 1512 2384.03 1512 2380 1507.97 2380 1503 2380 1498.03 2384.03 1494 2389 1494 2393.97 1494 2398 1498.03 2398 1503Z"/><path d="M2732 1242C2732 1246.97 2727.97 1251 2723 1251 2718.03 1251 2714 1246.97 2714 1242 2714 1237.03 2718.03 1233 2723 1233 2727.97 1233 2732 1237.03 2732 1242Z"/><path d="M2954 1120C2954 1124.97 2949.97 1129 2945 1129 2940.03 1129 2936 1124.97 2936 1120 2936 1115.03 2940.03 1111 2945 1111 2949.97 1111 2954 1115.03 2954 1120Z"/><path d="M3009 1001C3009 1005.97 3004.97 1010 3000 1010 2995.03 1010 2991 1005.97 2991 1001 2991 996.029 2995.03 992 3000 992 3004.97 992 3009 996.029 3009 1001Z"/><path d="M3287 730C3287 734.97 3282.97 739 3278 739 3273.03 739 3269 734.97 3269 730 3269 725.029 3273.03 721 3278 721 3282.97 721 3287 725.029 3287 730Z"/><path d="M3620 496C3620 500.97 3615.97 505 3611 505 3606.03 505 3602 500.97 3602 496 3602 491.029 3606.03 487 3611 487 3615.97 487 3620 491.029 3620 496Z"/><path d="M3648 359C3648 363.97 3643.97 368 3639 368 3634.03 368 3630 363.97 3630 359 3630 354.029 3634.03 350 3639 350 3643.97 350 3648 354.029 3648 359Z"/></g><g><path d="M2944.5 1119.5 2917.5 1096.5" stroke="#A6A6A6" stroke-width="3.4375" stroke-linejoin="round" stroke-miterlimit="10" fill="none"/></g><g><path d="M3611.5 496.5 3588.5 473.5" stroke="#A6A6A6" stroke-width="3.4375" stroke-linejoin="round" stroke-miterlimit="10" fill="none"/></g><g><path d="M3639.5 358.5 3684.5 335.5" stroke="#A6A6A6" stroke-width="3.4375" stroke-linejoin="round" stroke-miterlimit="10" fill="none"/></g><g><text font-family="Segoe UI Light,Segoe UI Light_MSFontService,sans-serif" font-weight="300" font-size="64" transform="matrix(6.12323e-17 -1 1 6.12323e-17 527.316 1887)">7108</text></g><g><text font-family="Segoe UI Light,Segoe UI Light_MSFontService,sans-serif" font-weight="300" font-size="64" transform="matrix(6.12323e-17 -1 1 6.12323e-17 1166.04 1830)">11480</text></g><g><text font-family="Segoe UI Light,Segoe UI Light_MSFontService,sans-serif" font-weight="300" font-size="64" transform="matrix(6.12323e-17 -1 1 6.12323e-17 1443.75 1820)">12273</text></g><g><text font-family="Segoe UI Light,Segoe UI Light_MSFontService,sans-serif" font-weight="300" font-size="64" transform="matrix(6.12323e-17 -1 1 6.12323e-17 1804.77 1713)">20628</text></g><g><text font-family="Segoe UI Light,Segoe UI Light_MSFontService,sans-serif" font-weight="300" font-size="64" transform="matrix(6.12323e-17 -1 1 6.12323e-17 2165.78 1621)">27775</text></g><g><text font-family="Segoe UI Light,Segoe UI Light_MSFontService,sans-serif" font-weight="300" font-size="64" transform="matrix(6.12323e-17 -1 1 6.12323e-17 2415.72 1466)">39836</text></g><g><text font-family="Segoe UI Light,Segoe UI Light_MSFontService,sans-serif" font-weight="300" font-size="64" transform="matrix(6.12323e-17 -1 1 6.12323e-17 2748.97 1205)">60202</text></g><g><text font-family="Segoe UI Light,Segoe UI Light_MSFontService,sans-serif" font-weight="300" font-size="64" transform="matrix(6.12323e-17 -1 1 6.12323e-17 2943.63 1083)">69695</text></g><g><text font-family="Segoe UI Light,Segoe UI Light_MSFontService,sans-serif" font-weight="300" font-size="64" transform="matrix(6.12323e-17 -1 1 6.12323e-17 3026.68 965)">78923</text></g><g><text font-family="Segoe UI Light,Segoe UI Light_MSFontService,sans-serif" font-weight="300" font-size="64" transform="matrix(6.12323e-17 -1 1 6.12323e-17 3304.38 693)">100038</text></g><g><text font-family="Segoe UI Light,Segoe UI Light_MSFontService,sans-serif" font-weight="300" font-size="64" transform="matrix(6.12323e-17 -1 1 6.12323e-17 3614.71 459)">118267</text></g><g><text font-family="Segoe UI Light,Segoe UI Light_MSFontService,sans-serif" font-weight="300" font-size="64" transform="matrix(6.12323e-17 -1 1 6.12323e-17 3711.23 322)">128968</text></g><g><text font-family="Segoe UI Light,Segoe UI Light_MSFontService,sans-serif" font-weight="300" font-size="64" transform="matrix(1 0 0 1 263.337 2036)">0</text></g><g><text font-family="Segoe UI Light,Segoe UI Light_MSFontService,sans-serif" font-weight="300" font-size="64" transform="matrix(1 0 0 1 131.154 1779)">20000</text></g><g><text font-family="Segoe UI Light,Segoe UI Light_MSFontService,sans-serif" font-weight="300" font-size="64" transform="matrix(1 0 0 1 130.146 1522)">40000</text></g><g><text font-family="Segoe UI Light,Segoe UI Light_MSFontService,sans-serif" font-weight="300" font-size="64" transform="matrix(1 0 0 1 131.154 1265)">60000</text></g><g><text font-family="Segoe UI Light,Segoe UI Light_MSFontService,sans-serif" font-weight="300" font-size="64" transform="matrix(1 0 0 1 131.154 1008)">80000</text></g><g><text font-family="Segoe UI Light,Segoe UI Light_MSFontService,sans-serif" font-weight="300" font-size="64" transform="matrix(1 0 0 1 108.283 752)">100000</text></g><g><text font-family="Segoe UI Light,Segoe UI Light_MSFontService,sans-serif" font-weight="300" font-size="64" transform="matrix(1 0 0 1 108.283 495)">120000</text></g><g><text font-family="Segoe UI Light,Segoe UI Light_MSFontService,sans-serif" font-weight="300" font-size="64" transform="matrix(1 0 0 1 107.275 238)">140000</text></g><g><text font-family="Segoe UI Light,Segoe UI Light_MSFontService,sans-serif" font-weight="300" font-size="64" transform="matrix(1 0 0 1 301.127 2130)">1900</text></g><g><text font-family="Segoe UI Light,Segoe UI Light_MSFontService,sans-serif" font-weight="300" font-size="64" transform="matrix(1 0 0 1 856.54 2130)">1920</text></g><g><text font-family="Segoe UI Light,Segoe UI Light_MSFontService,sans-serif" font-weight="300" font-size="64" transform="matrix(1 0 0 1 1411.45 2130)">1940</text></g><g><text font-family="Segoe UI Light,Segoe UI Light_MSFontService,sans-serif" font-weight="300" font-size="64" transform="matrix(1 0 0 1 1967.37 2130)">1960</text></g><g><text font-family="Segoe UI Light,Segoe UI Light_MSFontService,sans-serif" font-weight="300" font-size="64" transform="matrix(1 0 0 1 2522.78 2130)">1980</text></g><g><text font-family="Segoe UI Light,Segoe UI Light_MSFontService,sans-serif" font-weight="300" font-size="64" transform="matrix(1 0 0 1 3073.11 2130)">2000</text></g><g><text font-family="Segoe UI Light,Segoe UI Light_MSFontService,sans-serif" font-weight="300" font-size="64" transform="matrix(1 0 0 1 3628.52 2130)">2020</text></g><g><text font-family="Segoe UI Light,Segoe UI Light_MSFontService,sans-serif" font-weight="300" font-size="64" transform="matrix(1 0 0 1 4183.43 2130)">2040</text></g><g><text font-family="Segoe UI Light,Segoe UI Light_MSFontService,sans-serif" font-weight="300" font-size="64" transform="matrix(6.12323e-17 -1 1 6.12323e-17 75.8771 1246)">Población</text></g><g><text font-family="Segoe UI Light,Segoe UI Light_MSFontService,sans-serif" font-weight="300" font-size="64" transform="matrix(1 0 0 1 2250.73 2229)">Año</text></g><g><text font-family="Segoe UI Light,Segoe UI Light_MSFontService,sans-serif" font-weight="300" font-size="77" transform="matrix(1 0 0 1 1646.3 113)">DANE </text></g><g><text font-family="Segoe UI Light,Segoe UI Light_MSFontService,sans-serif" font-weight="300" font-size="77" transform="matrix(1 0 0 1 1858.94 113)">-</text></g><g><text font-family="Segoe UI Light,Segoe UI Light_MSFontService,sans-serif" font-weight="300" font-size="77" transform="matrix(1 0 0 1 1910.67 113)">Población censal municipal</text></g><g><rect x="417" y="274" width="333" height="112" fill="#FFFFFF"/></g><g><path d="M459 330 547 330" stroke="#000000" stroke-width="5.72917" stroke-linecap="round" stroke-linejoin="round" stroke-miterlimit="10" fill="none" fill-rule="evenodd"/></g><g><path d="M511 329C511 333.97 506.971 338 502 338 497.029 338 493 333.97 493 329 493 324.029 497.029 320 502 320 506.971 320 511 324.029 511 329Z"/></g><g><text font-family="Segoe UI Light,Segoe UI Light_MSFontService,sans-serif" font-weight="300" font-size="64" transform="matrix(1 0 0 1 556.217 351)">PTotal</text></g></g></svg>