<svg width="4416" height="2271" xmlns="http://www.w3.org/2000/svg" xmlns:xlink="http://www.w3.org/1999/xlink" xml:space="preserve" overflow="hidden"><defs><clipPath id="clip0"><rect x="0" y="0" width="4416" height="2271"/></clipPath></defs><g clip-path="url(#clip0)"><rect x="0" y="0" width="4416" height="2271" fill="#FFFFFF"/><g><path d="M316 1748.06 4268 1748.06M316 1482.05 4268 1482.05M316 1216.04 4268 1216.04M316 950.031 4268 950.031M316 684.022 4268 684.022M316 419.014 4268 419.014M316 153 4268 153" stroke="#F2F2F2" stroke-width="2.29167" stroke-linejoin="round" stroke-miterlimit="10" fill="none"/></g><g><path d="M675.022 153 675.022 2014M1035.03 153 1035.03 2014M1394.05 153 1394.05 2014M1753.06 153 1753.06 2014M2112.07 153 2112.07 2014M2471.08 153 2471.08 2014M2831.09 153 2831.09 2014M3190.1 153 3190.1 2014M3549.12 153 3549.12 2014M3908.13 153 3908.13 2014M4268 153 4268 2014" stroke="#F2F2F2" stroke-width="2.29167" stroke-linejoin="round" stroke-miterlimit="10" fill="none"/></g><g><path d="M424.014 1919.06 568.019 1919.06 568.019 2014 424.014 2014ZM783.026 1861.06 927.03 1861.06 927.03 2014 783.026 2014ZM1142.04 1850.06 1286.04 1850.06 1286.04 2014 1142.04 2014ZM1502.05 1739.06 1645.05 1739.06 1645.05 2014 1502.05 2014ZM1861.06 1644.05 2004.07 1644.05 2004.07 2014 1861.06 2014ZM2220.07 1484.05 2364.08 1484.05 2364.08 2014 2220.07 2014ZM2579.08 1213.04 2723.09 1213.04 2723.09 2014 2579.08 2014ZM2938.1 1087.04 3082.1 1087.04 3082.1 2014 2938.1 2014ZM3298.11 965.032 3441.11 965.032 3441.11 2014 3298.11 2014ZM3657.12 684.022 3800.12 684.022 3800.12 2014 3657.12 2014ZM4016.13 299.01 4160.14 299.01 4160.14 2014 4016.13 2014Z" fill="#7F7F7F"/></g><g><path d="M0 0 0.000360892 1861" stroke="#000000" stroke-width="3.4375" stroke-linejoin="round" stroke-miterlimit="10" fill="none" fill-rule="evenodd" transform="matrix(1 0 0 -1 316.5 2013.5)"/></g><g><path d="M316.5 2013.5 4267.5 2013.5" stroke="#000000" stroke-width="3.4375" stroke-linejoin="round" stroke-miterlimit="10" fill="none" fill-rule="evenodd"/></g><g><text font-family="Segoe UI Light,Segoe UI Light_MSFontService,sans-serif" font-weight="300" font-size="55" transform="matrix(6.12323e-17 -1 1 6.12323e-17 518.268 1892)">7108</text></g><g><text font-family="Segoe UI Light,Segoe UI Light_MSFontService,sans-serif" font-weight="300" font-size="55" transform="matrix(6.12323e-17 -1 1 6.12323e-17 877.48 1834)">11480</text></g><g><text font-family="Segoe UI Light,Segoe UI Light_MSFontService,sans-serif" font-weight="300" font-size="55" transform="matrix(6.12323e-17 -1 1 6.12323e-17 1236.69 1823)">12273</text></g><g><text font-family="Segoe UI Light,Segoe UI Light_MSFontService,sans-serif" font-weight="300" font-size="55" transform="matrix(6.12323e-17 -1 1 6.12323e-17 1595.9 1712)">20628</text></g><g><text font-family="Segoe UI Light,Segoe UI Light_MSFontService,sans-serif" font-weight="300" font-size="55" transform="matrix(6.12323e-17 -1 1 6.12323e-17 1955.12 1617)">27775</text></g><g><text font-family="Segoe UI Light,Segoe UI Light_MSFontService,sans-serif" font-weight="300" font-size="55" transform="matrix(6.12323e-17 -1 1 6.12323e-17 2314.33 1457)">39836</text></g><g><text font-family="Segoe UI Light,Segoe UI Light_MSFontService,sans-serif" font-weight="300" font-size="55" transform="matrix(6.12323e-17 -1 1 6.12323e-17 2673.54 1186)">60202</text></g><g><text font-family="Segoe UI Light,Segoe UI Light_MSFontService,sans-serif" font-weight="300" font-size="55" transform="matrix(6.12323e-17 -1 1 6.12323e-17 3032.75 1060)">69695</text></g><g><text font-family="Segoe UI Light,Segoe UI Light_MSFontService,sans-serif" font-weight="300" font-size="55" transform="matrix(6.12323e-17 -1 1 6.12323e-17 3391.96 937)">78923</text></g><g><text font-family="Segoe UI Light,Segoe UI Light_MSFontService,sans-serif" font-weight="300" font-size="55" transform="matrix(6.12323e-17 -1 1 6.12323e-17 3751.18 657)">100038</text></g><g><text font-family="Segoe UI Light,Segoe UI Light_MSFontService,sans-serif" font-weight="300" font-size="55" transform="matrix(6.12323e-17 -1 1 6.12323e-17 4110.39 272)">128968</text></g><g><text font-family="Segoe UI Light,Segoe UI Light_MSFontService,sans-serif" font-weight="300" font-size="55" transform="matrix(1 0 0 1 231.542 2032)">0</text></g><g><text font-family="Segoe UI Light,Segoe UI Light_MSFontService,sans-serif" font-weight="300" font-size="55" transform="matrix(1 0 0 1 118.242 1766)">20000</text></g><g><text font-family="Segoe UI Light,Segoe UI Light_MSFontService,sans-serif" font-weight="300" font-size="55" transform="matrix(1 0 0 1 117.371 1500)">40000</text></g><g><text font-family="Segoe UI Light,Segoe UI Light_MSFontService,sans-serif" font-weight="300" font-size="55" transform="matrix(1 0 0 1 118.242 1234)">60000</text></g><g><text font-family="Segoe UI Light,Segoe UI Light_MSFontService,sans-serif" font-weight="300" font-size="55" transform="matrix(1 0 0 1 118.242 968)">80000</text></g><g><text font-family="Segoe UI Light,Segoe UI Light_MSFontService,sans-serif" font-weight="300" font-size="55" transform="matrix(1 0 0 1 98.6481 702)">100000</text></g><g><text font-family="Segoe UI Light,Segoe UI Light_MSFontService,sans-serif" font-weight="300" font-size="55" transform="matrix(1 0 0 1 98.6481 437)">120000</text></g><g><text font-family="Segoe UI Light,Segoe UI Light_MSFontService,sans-serif" font-weight="300" font-size="55" transform="matrix(1 0 0 1 97.7773 171)">140000</text></g><g><text font-family="Segoe UI Light,Segoe UI Light_MSFontService,sans-serif" font-weight="300" font-size="55" transform="matrix(1 0 0 1 443.548 2112)">1905</text></g><g><text font-family="Segoe UI Light,Segoe UI Light_MSFontService,sans-serif" font-weight="300" font-size="55" transform="matrix(1 0 0 1 802.76 2112)">1928</text></g><g><text font-family="Segoe UI Light,Segoe UI Light_MSFontService,sans-serif" font-weight="300" font-size="55" transform="matrix(1 0 0 1 1161.97 2112)">1938</text></g><g><text font-family="Segoe UI Light,Segoe UI Light_MSFontService,sans-serif" font-weight="300" font-size="55" transform="matrix(1 0 0 1 1525.55 2112)">1951</text></g><g><text font-family="Segoe UI Light,Segoe UI Light_MSFontService,sans-serif" font-weight="300" font-size="55" transform="matrix(1 0 0 1 1879.96 2112)">1964</text></g><g><text font-family="Segoe UI Light,Segoe UI Light_MSFontService,sans-serif" font-weight="300" font-size="55" transform="matrix(1 0 0 1 2240.04 2112)">1973</text></g><g><text font-family="Segoe UI Light,Segoe UI Light_MSFontService,sans-serif" font-weight="300" font-size="55" transform="matrix(1 0 0 1 2598.82 2112)">1985</text></g><g><text font-family="Segoe UI Light,Segoe UI Light_MSFontService,sans-serif" font-weight="300" font-size="55" transform="matrix(1 0 0 1 2958.03 2112)">1993</text></g><g><text font-family="Segoe UI Light,Segoe UI Light_MSFontService,sans-serif" font-weight="300" font-size="55" transform="matrix(1 0 0 1 3317.25 2112)">1995</text></g><g><text font-family="Segoe UI Light,Segoe UI Light_MSFontService,sans-serif" font-weight="300" font-size="55" transform="matrix(1 0 0 1 3672.09 2112)">2005</text></g><g><text font-family="Segoe UI Light,Segoe UI Light_MSFontService,sans-serif" font-weight="300" font-size="55" transform="matrix(1 0 0 1 4035.67 2112)">2018</text></g><g><text font-family="Segoe UI Light,Segoe UI Light_MSFontService,sans-serif" font-weight="300" font-size="55" transform="matrix(6.12323e-17 -1 1 6.12323e-17 65.8854 1195)">Población</text></g><g><text font-family="Segoe UI Light,Segoe UI Light_MSFontService,sans-serif" font-weight="300" font-size="55" transform="matrix(1 0 0 1 2244.47 2199)">Año</text></g><g><text font-family="Segoe UI Light,Segoe UI Light_MSFontService,sans-serif" font-weight="300" font-size="66" transform="matrix(1 0 0 1 1778.89 105)">DANE </text></g><g><text font-family="Segoe UI Light,Segoe UI Light_MSFontService,sans-serif" font-weight="300" font-size="66" transform="matrix(1 0 0 1 1961.17 105)">-</text></g><g><text font-family="Segoe UI Light,Segoe UI Light_MSFontService,sans-serif" font-weight="300" font-size="66" transform="matrix(1 0 0 1 2005.51 105)">Población censal municipal</text></g><g><rect x="389" y="214" width="252" height="99.9997" fill="#FFFFFF"/></g><g><rect x="430" y="248" width="33" height="33" fill="#7F7F7F"/></g><g><text font-family="Segoe UI Light,Segoe UI Light_MSFontService,sans-serif" font-weight="300" font-size="55" transform="matrix(1 0 0 1 477.668 282)">PTotal</text></g></g></svg>