<svg width="4417" height="2272" xmlns="http://www.w3.org/2000/svg" xmlns:xlink="http://www.w3.org/1999/xlink" xml:space="preserve" overflow="hidden"><g><rect x="0" y="0" width="4417" height="2272" fill="#FFFFFF"/><g><path d="M362 1758.06 4250 1758.06M362 1501.05 4250 1501.05M362 1244.04 4250 1244.04M362 987.032 4250 987.032M362 731.024 4250 731.024M362 474.016 4250 474.016M362 217 4250 217" stroke="#F2F2F2" stroke-width="2.29167" stroke-linejoin="round" stroke-miterlimit="10" fill="none"/></g><g><path d="M848.028 217 848.028 2014M1334.04 217 1334.04 2014M1820.06 217 1820.06 2014M2306.08 217 2306.08 2014M2792.09 217 2792.09 2014M3278.11 217 3278.11 2014M3764.12 217 3764.12 2014M4250 217 4250 2014" stroke="#F2F2F2" stroke-width="2.29167" stroke-linejoin="round" stroke-miterlimit="10" fill="none"/></g><g><path d="M0 0 0.000360892 1797" stroke="#000000" stroke-width="3.4375" stroke-linejoin="round" stroke-miterlimit="10" fill="none" fill-rule="evenodd" transform="matrix(1 0 0 -1 362.5 2014.5)"/></g><g><path d="M362.5 2014.5 4250.5 2014.5" stroke="#000000" stroke-width="3.4375" stroke-linejoin="round" stroke-miterlimit="10" fill="none" fill-rule="evenodd"/></g><g><path d="M970 1923C1156.25 1904.3 1395.13 1877.94 1528.74 1866.89 1649.9 1856.87 1687.23 1874.45 1771.67 1856.71 1864.79 1837.14 1982.21 1782.64 2087.48 1749.48 2192.75 1716.32 2314.21 1698.84 2403.29 1657.75 2492.36 1616.66 2536.9 1572.32 2621.92 1502.96 2706.95 1433.59 2832.46 1305.44 2913.44 1241.57 2994.42 1177.7 3067.3 1159.78 3107.78 1119.73 3139.75 1088.12 3118.01 1052.54 3156.37 1001.3 3204.96 936.392 3310.23 814.458 3399.3 730.299 3488.38 646.14 3638.18 558.224 3690.82 496.341 3736 443.219 3708.16 398.298 3715.11 359" stroke="#000000" stroke-width="5.72917" stroke-linecap="round" stroke-linejoin="round" stroke-miterlimit="10" fill="none"/></g><g><path d="M979 1923C979 1927.97 974.97 1932 970 1932 965.029 1932 961 1927.97 961 1923 961 1918.03 965.029 1914 970 1914 974.97 1914 979 1918.03 979 1923Z"/><path d="M1537 1867C1537 1871.97 1532.97 1876 1528 1876 1523.03 1876 1519 1871.97 1519 1867 1519 1862.03 1523.03 1858 1528 1858 1532.97 1858 1537 1862.03 1537 1867Z"/><path d="M1780 1857C1780 1861.97 1775.97 1866 1771 1866 1766.03 1866 1762 1861.97 1762 1857 1762 1852.03 1766.03 1848 1771 1848 1775.97 1848 1780 1852.03 1780 1857Z"/><path d="M2096 1750C2096 1754.97 2091.97 1759 2087 1759 2082.03 1759 2078 1754.97 2078 1750 2078 1745.03 2082.03 1741 2087 1741 2091.97 1741 2096 1745.03 2096 1750Z"/><path d="M2412 1658C2412 1662.97 2407.97 1667 2403 1667 2398.03 1667 2394 1662.97 2394 1658 2394 1653.03 2398.03 1649 2403 1649 2407.97 1649 2412 1653.03 2412 1658Z"/><path d="M2631 1503C2631 1507.97 2626.97 1512 2622 1512 2617.03 1512 2613 1507.97 2613 1503 2613 1498.03 2617.03 1494 2622 1494 2626.97 1494 2631 1498.03 2631 1503Z"/><path d="M2923 1242C2923 1246.97 2918.97 1251 2914 1251 2909.03 1251 2905 1246.97 2905 1242 2905 1237.03 2909.03 1233 2914 1233 2918.97 1233 2923 1237.03 2923 1242Z"/><path d="M3117 1120C3117 1124.97 3112.97 1129 3108 1129 3103.03 1129 3099 1124.97 3099 1120 3099 1115.03 3103.03 1111 3108 1111 3112.97 1111 3117 1115.03 3117 1120Z"/><path d="M3166 1001C3166 1005.97 3161.97 1010 3157 1010 3152.03 1010 3148 1005.97 3148 1001 3148 996.029 3152.03 992 3157 992 3161.97 992 3166 996.029 3166 1001Z"/><path d="M3409 730C3409 734.97 3404.97 739 3400 739 3395.03 739 3391 734.97 3391 730 3391 725.029 3395.03 721 3400 721 3404.97 721 3409 725.029 3409 730Z"/><path d="M3700 496C3700 500.97 3695.97 505 3691 505 3686.03 505 3682 500.97 3682 496 3682 491.029 3686.03 487 3691 487 3695.97 487 3700 491.029 3700 496Z"/><path d="M3724 359C3724 363.97 3719.97 368 3715 368 3710.03 368 3706 363.97 3706 359 3706 354.029 3710.03 350 3715 350 3719.97 350 3724 354.029 3724 359Z"/></g><g><path d="M3107.5 1119.5 3080.5 1096.5" stroke="#A6A6A6" stroke-width="3.4375" stroke-linejoin="round" stroke-miterlimit="10" fill="none"/></g><g><path d="M3691.5 496.5 3668.5 473.5" stroke="#A6A6A6" stroke-width="3.4375" stroke-linejoin="round" stroke-miterlimit="10" fill="none"/></g><g><path d="M3715.5 358.5 3761.5 335.5" stroke="#A6A6A6" stroke-width="3.4375" stroke-linejoin="round" stroke-miterlimit="10" fill="none"/></g><g><text font-family="Segoe UI Light,Segoe UI Light_MSFontService,sans-serif" font-weight="300" font-size="64" transform="matrix(6.12323e-17 -1 1 6.12323e-17 995.946 1887)">7108</text></g><g><text font-family="Segoe UI Light,Segoe UI Light_MSFontService,sans-serif" font-weight="300" font-size="64" transform="matrix(6.12323e-17 -1 1 6.12323e-17 1554.83 1830)">11480</text></g><g><text font-family="Segoe UI Light,Segoe UI Light_MSFontService,sans-serif" font-weight="300" font-size="64" transform="matrix(6.12323e-17 -1 1 6.12323e-17 1797.82 1820)">12273</text></g><g><text font-family="Segoe UI Light,Segoe UI Light_MSFontService,sans-serif" font-weight="300" font-size="64" transform="matrix(6.12323e-17 -1 1 6.12323e-17 2113.71 1713)">20628</text></g><g><text font-family="Segoe UI Light,Segoe UI Light_MSFontService,sans-serif" font-weight="300" font-size="64" transform="matrix(6.12323e-17 -1 1 6.12323e-17 2429.61 1621)">27775</text></g><g><text font-family="Segoe UI Light,Segoe UI Light_MSFontService,sans-serif" font-weight="300" font-size="64" transform="matrix(6.12323e-17 -1 1 6.12323e-17 2648.3 1466)">39836</text></g><g><text font-family="Segoe UI Light,Segoe UI Light_MSFontService,sans-serif" font-weight="300" font-size="64" transform="matrix(6.12323e-17 -1 1 6.12323e-17 2939.89 1205)">60202</text></g><g><text font-family="Segoe UI Light,Segoe UI Light_MSFontService,sans-serif" font-weight="300" font-size="64" transform="matrix(6.12323e-17 -1 1 6.12323e-17 3106.79 1083)">69695</text></g><g><text font-family="Segoe UI Light,Segoe UI Light_MSFontService,sans-serif" font-weight="300" font-size="64" transform="matrix(6.12323e-17 -1 1 6.12323e-17 3182.89 965)">78923</text></g><g><text font-family="Segoe UI Light,Segoe UI Light_MSFontService,sans-serif" font-weight="300" font-size="64" transform="matrix(6.12323e-17 -1 1 6.12323e-17 3425.88 693)">100038</text></g><g><text font-family="Segoe UI Light,Segoe UI Light_MSFontService,sans-serif" font-weight="300" font-size="64" transform="matrix(6.12323e-17 -1 1 6.12323e-17 3694.55 459)">118267</text></g><g><text font-family="Segoe UI Light,Segoe UI Light_MSFontService,sans-serif" font-weight="300" font-size="64" transform="matrix(6.12323e-17 -1 1 6.12323e-17 3787.6 322)">128968</text></g><g><text font-family="Segoe UI Light,Segoe UI Light_MSFontService,sans-serif" font-weight="300" font-size="64" transform="matrix(1 0 0 1 263.337 2036)">0</text></g><g><text font-family="Segoe UI Light,Segoe UI Light_MSFontService,sans-serif" font-weight="300" font-size="64" transform="matrix(1 0 0 1 131.154 1779)">20000</text></g><g><text font-family="Segoe UI Light,Segoe UI Light_MSFontService,sans-serif" font-weight="300" font-size="64" transform="matrix(1 0 0 1 130.146 1522)">40000</text></g><g><text font-family="Segoe UI Light,Segoe UI Light_MSFontService,sans-serif" font-weight="300" font-size="64" transform="matrix(1 0 0 1 131.154 1265)">60000</text></g><g><text font-family="Segoe UI Light,Segoe UI Light_MSFontService,sans-serif" font-weight="300" font-size="64" transform="matrix(1 0 0 1 131.154 1008)">80000</text></g><g><text font-family="Segoe UI Light,Segoe UI Light_MSFontService,sans-serif" font-weight="300" font-size="64" transform="matrix(1 0 0 1 108.283 752)">100000</text></g><g><text font-family="Segoe UI Light,Segoe UI Light_MSFontService,sans-serif" font-weight="300" font-size="64" transform="matrix(1 0 0 1 108.283 495)">120000</text></g><g><text font-family="Segoe UI Light,Segoe UI Light_MSFontService,sans-serif" font-weight="300" font-size="64" transform="matrix(1 0 0 1 107.275 238)">140000</text></g><g><text font-family="Segoe UI Light,Segoe UI Light_MSFontService,sans-serif" font-weight="300" font-size="64" transform="matrix(1 0 0 1 301.127 2130)">1880</text></g><g><text font-family="Segoe UI Light,Segoe UI Light_MSFontService,sans-serif" font-weight="300" font-size="64" transform="matrix(1 0 0 1 787.113 2130)">1900</text></g><g><text font-family="Segoe UI Light,Segoe UI Light_MSFontService,sans-serif" font-weight="300" font-size="64" transform="matrix(1 0 0 1 1273.1 2130)">1920</text></g><g><text font-family="Segoe UI Light,Segoe UI Light_MSFontService,sans-serif" font-weight="300" font-size="64" transform="matrix(1 0 0 1 1758.58 2130)">1940</text></g><g><text font-family="Segoe UI Light,Segoe UI Light_MSFontService,sans-serif" font-weight="300" font-size="64" transform="matrix(1 0 0 1 2245.07 2130)">1960</text></g><g><text font-family="Segoe UI Light,Segoe UI Light_MSFontService,sans-serif" font-weight="300" font-size="64" transform="matrix(1 0 0 1 2731.06 2130)">1980</text></g><g><text font-family="Segoe UI Light,Segoe UI Light_MSFontService,sans-serif" font-weight="300" font-size="64" transform="matrix(1 0 0 1 3211.96 2130)">2000</text></g><g><text font-family="Segoe UI Light,Segoe UI Light_MSFontService,sans-serif" font-weight="300" font-size="64" transform="matrix(1 0 0 1 3697.95 2130)">2020</text></g><g><text font-family="Segoe UI Light,Segoe UI Light_MSFontService,sans-serif" font-weight="300" font-size="64" transform="matrix(1 0 0 1 4183.43 2130)">2040</text></g><g><text font-family="Segoe UI Light,Segoe UI Light_MSFontService,sans-serif" font-weight="300" font-size="64" transform="matrix(6.12323e-17 -1 1 6.12323e-17 75.8771 1246)">Población</text></g><g><text font-family="Segoe UI Light,Segoe UI Light_MSFontService,sans-serif" font-weight="300" font-size="64" transform="matrix(1 0 0 1 2250.73 2229)">Año</text></g><g><text font-family="Segoe UI Light,Segoe UI Light_MSFontService,sans-serif" font-weight="300" font-size="77" transform="matrix(1 0 0 1 1646.3 113)">DANE </text></g><g><text font-family="Segoe UI Light,Segoe UI Light_MSFontService,sans-serif" font-weight="300" font-size="77" transform="matrix(1 0 0 1 1858.94 113)">-</text></g><g><text font-family="Segoe UI Light,Segoe UI Light_MSFontService,sans-serif" font-weight="300" font-size="77" transform="matrix(1 0 0 1 1910.67 113)">Población censal municipal</text></g><g><rect x="417" y="274" width="333" height="112" fill="#FFFFFF"/></g><g><path d="M459 330 547 330" stroke="#000000" stroke-width="5.72917" stroke-linecap="round" stroke-linejoin="round" stroke-miterlimit="10" fill="none" fill-rule="evenodd"/></g><g><path d="M511 329C511 333.97 506.971 338 502 338 497.029 338 493 333.97 493 329 493 324.029 497.029 320 502 320 506.971 320 511 324.029 511 329Z"/></g><g><text font-family="Segoe UI Light,Segoe UI Light_MSFontService,sans-serif" font-weight="300" font-size="64" transform="matrix(1 0 0 1 556.217 351)">PTotal</text></g></g></svg>