<svg width="4416" height="2271" xmlns="http://www.w3.org/2000/svg" xmlns:xlink="http://www.w3.org/1999/xlink" xml:space="preserve" overflow="hidden"><defs><clipPath id="clip0"><rect x="0" y="0" width="4416" height="2271"/></clipPath></defs><g clip-path="url(#clip0)"><rect x="0" y="0" width="4416" height="2271" fill="#FFFFFF"/><g><path d="M316 1748.06 4268 1748.06M316 1482.05 4268 1482.05M316 1216.04 4268 1216.04M316 950.031 4268 950.031M316 684.022 4268 684.022M316 419.014 4268 419.014M316 153 4268 153" stroke="#F2F2F2" stroke-width="2.29167" stroke-linejoin="round" stroke-miterlimit="10" fill="none"/></g><g><path d="M675.022 153 675.022 2014M1035.03 153 1035.03 2014M1394.05 153 1394.05 2014M1753.06 153 1753.06 2014M2112.07 153 2112.07 2014M2471.08 153 2471.08 2014M2831.09 153 2831.09 2014M3190.1 153 3190.1 2014M3549.12 153 3549.12 2014M3908.13 153 3908.13 2014M4268 153 4268 2014" stroke="#F2F2F2" stroke-width="2.29167" stroke-linejoin="round" stroke-miterlimit="10" fill="none"/></g><g><path d="M424.014 1919.06 568.019 1919.06 568.019 2014 424.014 2014ZM783.026 1861.06 927.03 1861.06 927.03 2014 783.026 2014ZM1142.04 1850.06 1286.04 1850.06 1286.04 2014 1142.04 2014ZM1502.05 1739.06 1645.05 1739.06 1645.05 2014 1502.05 2014ZM1861.06 1644.05 2004.07 1644.05 2004.07 2014 1861.06 2014ZM2220.07 1484.05 2364.08 1484.05 2364.08 2014 2220.07 2014ZM2579.08 1213.04 2723.09 1213.04 2723.09 2014 2579.08 2014ZM2938.1 1087.04 3082.1 1087.04 3082.1 2014 2938.1 2014ZM3298.11 965.032 3441.11 965.032 3441.11 2014 3298.11 2014ZM3657.12 684.022 3800.12 684.022 3800.12 2014 3657.12 2014ZM4016.13 299.01 4160.14 299.01 4160.14 2014 4016.13 2014Z" fill="#7F7F7F"/></g><g><path d="M0 0 0.000360892 1861" stroke="#000000" stroke-width="3.4375" stroke-linejoin="round" stroke-miterlimit="10" fill="none" fill-rule="evenodd" transform="matrix(1 0 0 -1 316.5 2013.5)"/></g><g><path d="M316.5 2013.5 4267.5 2013.5" stroke="#000000" stroke-width="3.4375" stroke-linejoin="round" stroke-miterlimit="10" fill="none" fill-rule="evenodd"/></g><g><text font-family="Segoe UI Light,Segoe UI Light_MSFontService,sans-serif" font-weight="300" font-size="50" transform="matrix(6.12323e-17 -1 1 6.12323e-17 516.297 1892)">7108</text></g><g><text font-family="Segoe UI Light,Segoe UI Light_MSFontService,sans-serif" font-weight="300" font-size="50" transform="matrix(6.12323e-17 -1 1 6.12323e-17 875.509 1834)">11480</text></g><g><text font-family="Segoe UI Light,Segoe UI Light_MSFontService,sans-serif" font-weight="300" font-size="50" transform="matrix(6.12323e-17 -1 1 6.12323e-17 1234.72 1823)">12273</text></g><g><text font-family="Segoe UI Light,Segoe UI Light_MSFontService,sans-serif" font-weight="300" font-size="50" transform="matrix(6.12323e-17 -1 1 6.12323e-17 1593.93 1712)">20628</text></g><g><text font-family="Segoe UI Light,Segoe UI Light_MSFontService,sans-serif" font-weight="300" font-size="50" transform="matrix(6.12323e-17 -1 1 6.12323e-17 1953.15 1617)">27775</text></g><g><text font-family="Segoe UI Light,Segoe UI Light_MSFontService,sans-serif" font-weight="300" font-size="50" transform="matrix(6.12323e-17 -1 1 6.12323e-17 2312.36 1457)">39836</text></g><g><text font-family="Segoe UI Light,Segoe UI Light_MSFontService,sans-serif" font-weight="300" font-size="50" transform="matrix(6.12323e-17 -1 1 6.12323e-17 2671.57 1186)">60202</text></g><g><text font-family="Segoe UI Light,Segoe UI Light_MSFontService,sans-serif" font-weight="300" font-size="50" transform="matrix(6.12323e-17 -1 1 6.12323e-17 3030.78 1060)">69695</text></g><g><text font-family="Segoe UI Light,Segoe UI Light_MSFontService,sans-serif" font-weight="300" font-size="50" transform="matrix(6.12323e-17 -1 1 6.12323e-17 3389.99 937)">78923</text></g><g><text font-family="Segoe UI Light,Segoe UI Light_MSFontService,sans-serif" font-weight="300" font-size="50" transform="matrix(6.12323e-17 -1 1 6.12323e-17 3749.21 657)">100038</text></g><g><text font-family="Segoe UI Light,Segoe UI Light_MSFontService,sans-serif" font-weight="300" font-size="50" transform="matrix(6.12323e-17 -1 1 6.12323e-17 4108.42 272)">128968</text></g><g><text font-family="Segoe UI Light,Segoe UI Light_MSFontService,sans-serif" font-weight="300" font-size="50" transform="matrix(1 0 0 1 238.6 2030)">0</text></g><g><text font-family="Segoe UI Light,Segoe UI Light_MSFontService,sans-serif" font-weight="300" font-size="50" transform="matrix(1 0 0 1 134.741 1764)">20000</text></g><g><text font-family="Segoe UI Light,Segoe UI Light_MSFontService,sans-serif" font-weight="300" font-size="50" transform="matrix(1 0 0 1 133.939 1498)">40000</text></g><g><text font-family="Segoe UI Light,Segoe UI Light_MSFontService,sans-serif" font-weight="300" font-size="50" transform="matrix(1 0 0 1 134.741 1232)">60000</text></g><g><text font-family="Segoe UI Light,Segoe UI Light_MSFontService,sans-serif" font-weight="300" font-size="50" transform="matrix(1 0 0 1 134.741 967)">80000</text></g><g><text font-family="Segoe UI Light,Segoe UI Light_MSFontService,sans-serif" font-weight="300" font-size="50" transform="matrix(1 0 0 1 116.775 701)">100000</text></g><g><text font-family="Segoe UI Light,Segoe UI Light_MSFontService,sans-serif" font-weight="300" font-size="50" transform="matrix(1 0 0 1 116.775 435)">120000</text></g><g><text font-family="Segoe UI Light,Segoe UI Light_MSFontService,sans-serif" font-weight="300" font-size="50" transform="matrix(1 0 0 1 115.973 169)">140000</text></g><g><text font-family="Segoe UI Light,Segoe UI Light_MSFontService,sans-serif" font-weight="300" font-size="50" transform="matrix(1 0 0 1 447.902 2104)">1905</text></g><g><text font-family="Segoe UI Light,Segoe UI Light_MSFontService,sans-serif" font-weight="300" font-size="50" transform="matrix(1 0 0 1 807.114 2104)">1928</text></g><g><text font-family="Segoe UI Light,Segoe UI Light_MSFontService,sans-serif" font-weight="300" font-size="50" transform="matrix(1 0 0 1 1166.33 2104)">1938</text></g><g><text font-family="Segoe UI Light,Segoe UI Light_MSFontService,sans-serif" font-weight="300" font-size="50" transform="matrix(1 0 0 1 1529.54 2104)">1951</text></g><g><text font-family="Segoe UI Light,Segoe UI Light_MSFontService,sans-serif" font-weight="300" font-size="50" transform="matrix(1 0 0 1 1884.35 2104)">1964</text></g><g><text font-family="Segoe UI Light,Segoe UI Light_MSFontService,sans-serif" font-weight="300" font-size="50" transform="matrix(1 0 0 1 2244.36 2104)">1973</text></g><g><text font-family="Segoe UI Light,Segoe UI Light_MSFontService,sans-serif" font-weight="300" font-size="50" transform="matrix(1 0 0 1 2603.17 2104)">1985</text></g><g><text font-family="Segoe UI Light,Segoe UI Light_MSFontService,sans-serif" font-weight="300" font-size="50" transform="matrix(1 0 0 1 2962.39 2104)">1993</text></g><g><text font-family="Segoe UI Light,Segoe UI Light_MSFontService,sans-serif" font-weight="300" font-size="50" transform="matrix(1 0 0 1 3321.6 2104)">1995</text></g><g><text font-family="Segoe UI Light,Segoe UI Light_MSFontService,sans-serif" font-weight="300" font-size="50" transform="matrix(1 0 0 1 3676.81 2104)">2005</text></g><g><text font-family="Segoe UI Light,Segoe UI Light_MSFontService,sans-serif" font-weight="300" font-size="50" transform="matrix(1 0 0 1 4040.02 2104)">2018</text></g><g><text font-family="Segoe UI Light,Segoe UI Light_MSFontService,sans-serif" font-weight="300" font-size="50" transform="matrix(6.12323e-17 -1 1 6.12323e-17 60.8666 1187)">Población</text></g><g><text font-family="Segoe UI Light,Segoe UI Light_MSFontService,sans-serif" font-weight="300" font-size="50" transform="matrix(1 0 0 1 2248.41 2185)">Año</text></g><g><text font-family="Segoe UI Light,Segoe UI Light_MSFontService,sans-serif" font-weight="300" font-size="55" transform="matrix(1 0 0 1 1778.89 93)">DANE </text></g><g><text font-family="Segoe UI Light,Segoe UI Light_MSFontService,sans-serif" font-weight="300" font-size="55" transform="matrix(1 0 0 1 1930.78 93)">-</text></g><g><text font-family="Segoe UI Light,Segoe UI Light_MSFontService,sans-serif" font-weight="300" font-size="55" transform="matrix(1 0 0 1 1967.72 93)">Población censal municipal</text></g><g><rect x="389" y="214" width="231" height="93.9998" fill="#FFFFFF"/></g><g><rect x="427" y="246" width="29.9999" height="29.9999" fill="#7F7F7F"/></g><g><text font-family="Segoe UI Light,Segoe UI Light_MSFontService,sans-serif" font-weight="300" font-size="50" transform="matrix(1 0 0 1 470.437 278)">PTotal</text></g></g></svg>