<svg width="4416" height="2271" xmlns="http://www.w3.org/2000/svg" xmlns:xlink="http://www.w3.org/1999/xlink" xml:space="preserve" overflow="hidden"><defs><clipPath id="clip0"><rect x="0" y="0" width="4416" height="2271"/></clipPath></defs><g clip-path="url(#clip0)"><rect x="0" y="0" width="4416" height="2271" fill="#FFFFFF"/><g><path d="M380 1748.06 4268 1748.06M380 1482.05 4268 1482.05M380 1216.04 4268 1216.04M380 950.031 4268 950.031M380 684.022 4268 684.022M380 419.014 4268 419.014M380 153 4268 153" stroke="#F2F2F2" stroke-width="2.29167" stroke-linejoin="round" stroke-miterlimit="10" fill="none"/></g><g><path d="M734.024 153 734.024 2014M1087.04 153 1087.04 2014M1440.05 153 1440.05 2014M1794.06 153 1794.06 2014M2147.07 153 2147.07 2014M2501.08 153 2501.08 2014M2854.09 153 2854.09 2014M3207.11 153 3207.11 2014M3561.12 153 3561.12 2014M3914.13 153 3914.13 2014M4268 153 4268 2014" stroke="#F2F2F2" stroke-width="2.29167" stroke-linejoin="round" stroke-miterlimit="10" fill="none"/></g><g><path d="M439.014 1919.06 675.022 1919.06 675.022 2014 439.014 2014ZM793.026 1861.06 1028.03 1861.06 1028.03 2014 793.026 2014ZM1146.04 1850.06 1382.05 1850.06 1382.05 2014 1146.04 2014ZM1499.05 1739.06 1735.06 1739.06 1735.06 2014 1499.05 2014ZM1853.06 1644.05 2088.07 1644.05 2088.07 2014 1853.06 2014ZM2206.07 1484.05 2442.08 1484.05 2442.08 2014 2206.07 2014ZM2559.08 1213.04 2795.09 1213.04 2795.09 2014 2559.08 2014ZM2913.1 1087.04 3148.1 1087.04 3148.1 2014 2913.1 2014ZM3266.11 965.032 3502.11 965.032 3502.11 2014 3266.11 2014ZM3620.12 684.022 3855.13 684.022 3855.13 2014 3620.12 2014ZM3973.13 299.01 4209.14 299.01 4209.14 2014 3973.13 2014Z" fill="#7F7F7F"/></g><g><path d="M0 0 0.000360892 1861" stroke="#000000" stroke-width="3.4375" stroke-linejoin="round" stroke-miterlimit="10" fill="none" fill-rule="evenodd" transform="matrix(1 0 0 -1 380.5 2013.5)"/></g><g><path d="M380.5 2013.5 4267.5 2013.5" stroke="#000000" stroke-width="3.4375" stroke-linejoin="round" stroke-miterlimit="10" fill="none" fill-rule="evenodd"/></g><g><text font-family="Segoe UI Light,Segoe UI Light_MSFontService,sans-serif" font-weight="300" font-size="64" transform="matrix(6.12323e-17 -1 1 6.12323e-17 583.414 1892)">7108</text></g><g><text font-family="Segoe UI Light,Segoe UI Light_MSFontService,sans-serif" font-weight="300" font-size="64" transform="matrix(6.12323e-17 -1 1 6.12323e-17 936.792 1834)">11480</text></g><g><text font-family="Segoe UI Light,Segoe UI Light_MSFontService,sans-serif" font-weight="300" font-size="64" transform="matrix(6.12323e-17 -1 1 6.12323e-17 1290.17 1823)">12273</text></g><g><text font-family="Segoe UI Light,Segoe UI Light_MSFontService,sans-serif" font-weight="300" font-size="64" transform="matrix(6.12323e-17 -1 1 6.12323e-17 1643.55 1712)">20628</text></g><g><text font-family="Segoe UI Light,Segoe UI Light_MSFontService,sans-serif" font-weight="300" font-size="64" transform="matrix(6.12323e-17 -1 1 6.12323e-17 1996.93 1617)">27775</text></g><g><text font-family="Segoe UI Light,Segoe UI Light_MSFontService,sans-serif" font-weight="300" font-size="64" transform="matrix(6.12323e-17 -1 1 6.12323e-17 2350.31 1457)">39836</text></g><g><text font-family="Segoe UI Light,Segoe UI Light_MSFontService,sans-serif" font-weight="300" font-size="64" transform="matrix(6.12323e-17 -1 1 6.12323e-17 2703.69 1186)">60202</text></g><g><text font-family="Segoe UI Light,Segoe UI Light_MSFontService,sans-serif" font-weight="300" font-size="64" transform="matrix(6.12323e-17 -1 1 6.12323e-17 3057.07 1060)">69695</text></g><g><text font-family="Segoe UI Light,Segoe UI Light_MSFontService,sans-serif" font-weight="300" font-size="64" transform="matrix(6.12323e-17 -1 1 6.12323e-17 3410.44 937)">78923</text></g><g><text font-family="Segoe UI Light,Segoe UI Light_MSFontService,sans-serif" font-weight="300" font-size="64" transform="matrix(6.12323e-17 -1 1 6.12323e-17 3763.82 657)">100038</text></g><g><text font-family="Segoe UI Light,Segoe UI Light_MSFontService,sans-serif" font-weight="300" font-size="64" transform="matrix(6.12323e-17 -1 1 6.12323e-17 4117.2 272)">128968</text></g><g><text font-family="Segoe UI Light,Segoe UI Light_MSFontService,sans-serif" font-weight="300" font-size="64" transform="matrix(1 0 0 1 281.6 2035)">0</text></g><g><text font-family="Segoe UI Light,Segoe UI Light_MSFontService,sans-serif" font-weight="300" font-size="64" transform="matrix(1 0 0 1 149.416 1769)">20000</text></g><g><text font-family="Segoe UI Light,Segoe UI Light_MSFontService,sans-serif" font-weight="300" font-size="64" transform="matrix(1 0 0 1 148.408 1503)">40000</text></g><g><text font-family="Segoe UI Light,Segoe UI Light_MSFontService,sans-serif" font-weight="300" font-size="64" transform="matrix(1 0 0 1 149.416 1237)">60000</text></g><g><text font-family="Segoe UI Light,Segoe UI Light_MSFontService,sans-serif" font-weight="300" font-size="64" transform="matrix(1 0 0 1 149.416 971)">80000</text></g><g><text font-family="Segoe UI Light,Segoe UI Light_MSFontService,sans-serif" font-weight="300" font-size="64" transform="matrix(1 0 0 1 126.545 706)">100000</text></g><g><text font-family="Segoe UI Light,Segoe UI Light_MSFontService,sans-serif" font-weight="300" font-size="64" transform="matrix(1 0 0 1 126.545 440)">120000</text></g><g><text font-family="Segoe UI Light,Segoe UI Light_MSFontService,sans-serif" font-weight="300" font-size="64" transform="matrix(1 0 0 1 125.537 174)">140000</text></g><g><text font-family="Segoe UI Light,Segoe UI Light_MSFontService,sans-serif" font-weight="300" font-size="64" transform="matrix(1 0 0 1 496.078 2129)">1905</text></g><g><text font-family="Segoe UI Light,Segoe UI Light_MSFontService,sans-serif" font-weight="300" font-size="64" transform="matrix(1 0 0 1 849.457 2129)">1928</text></g><g><text font-family="Segoe UI Light,Segoe UI Light_MSFontService,sans-serif" font-weight="300" font-size="64" transform="matrix(1 0 0 1 1202.84 2129)">1938</text></g><g><text font-family="Segoe UI Light,Segoe UI Light_MSFontService,sans-serif" font-weight="300" font-size="64" transform="matrix(1 0 0 1 1561.3 2129)">1951</text></g><g><text font-family="Segoe UI Light,Segoe UI Light_MSFontService,sans-serif" font-weight="300" font-size="64" transform="matrix(1 0 0 1 1909.09 2129)">1964</text></g><g><text font-family="Segoe UI Light,Segoe UI Light_MSFontService,sans-serif" font-weight="300" font-size="64" transform="matrix(1 0 0 1 2263.49 2129)">1973</text></g><g><text font-family="Segoe UI Light,Segoe UI Light_MSFontService,sans-serif" font-weight="300" font-size="64" transform="matrix(1 0 0 1 2616.35 2129)">1985</text></g><g><text font-family="Segoe UI Light,Segoe UI Light_MSFontService,sans-serif" font-weight="300" font-size="64" transform="matrix(1 0 0 1 2969.73 2129)">1993</text></g><g><text font-family="Segoe UI Light,Segoe UI Light_MSFontService,sans-serif" font-weight="300" font-size="64" transform="matrix(1 0 0 1 3323.11 2129)">1995</text></g><g><text font-family="Segoe UI Light,Segoe UI Light_MSFontService,sans-serif" font-weight="300" font-size="64" transform="matrix(1 0 0 1 3671.4 2129)">2005</text></g><g><text font-family="Segoe UI Light,Segoe UI Light_MSFontService,sans-serif" font-weight="300" font-size="64" transform="matrix(1 0 0 1 4029.87 2129)">2018</text></g><g><text font-family="Segoe UI Light,Segoe UI Light_MSFontService,sans-serif" font-weight="300" font-size="64" transform="matrix(6.12323e-17 -1 1 6.12323e-17 75.8771 1213)">Población</text></g><g><text font-family="Segoe UI Light,Segoe UI Light_MSFontService,sans-serif" font-weight="300" font-size="64" transform="matrix(1 0 0 1 2268.63 2228)">Año</text></g><g><text font-family="Segoe UI Light,Segoe UI Light_MSFontService,sans-serif" font-weight="300" font-size="77" transform="matrix(1 0 0 1 1778.89 117)">DANE </text></g><g><text font-family="Segoe UI Light,Segoe UI Light_MSFontService,sans-serif" font-weight="300" font-size="77" transform="matrix(1 0 0 1 1991.53 117)">-</text></g><g><text font-family="Segoe UI Light,Segoe UI Light_MSFontService,sans-serif" font-weight="300" font-size="77" transform="matrix(1 0 0 1 2043.25 117)">Población censal municipal</text></g><g><rect x="389" y="214" width="293" height="112" fill="#FFFFFF"/></g><g><rect x="436" y="251" width="39.0002" height="39.0002" fill="#7F7F7F"/></g><g><text font-family="Segoe UI Light,Segoe UI Light_MSFontService,sans-serif" font-weight="300" font-size="64" transform="matrix(1 0 0 1 492.133 291)">PTotal</text></g></g></svg>