<?xml version="1.0" encoding="UTF-8"?>
<!DOCTYPE svg PUBLIC "-//W3C//DTD SVG 1.1//EN" "http://www.w3.org/Graphics/SVG/1.1/DTD/svg11.dtd">
<!-- Creator: CorelDRAW -->
<svg xmlns="http://www.w3.org/2000/svg" xml:space="preserve" width="895px" height="244px" version="1.1" style="shape-rendering:geometricPrecision; text-rendering:geometricPrecision; image-rendering:optimizeQuality; fill-rule:evenodd; clip-rule:evenodd"
viewBox="0 0 408.33 111.47"
 xmlns:xlink="http://www.w3.org/1999/xlink"
 xmlns:xodm="http://www.corel.com/coreldraw/odm/2003">
 <defs>
  <style type="text/css">
   <![CDATA[
    .str0 {stroke:black;stroke-width:0.41;stroke-miterlimit:22.9256}
    .fil0 {fill:white}
    .fil2 {fill:black;fill-rule:nonzero}
    .fil1 {fill:black;fill-rule:nonzero}
   ]]>
  </style>
 </defs>
 <g id="Capa_x0020_1">
  <metadata id="CorelCorpID_0Corel-Layer"/>
  <g>
   <path class="fil0" d="M47.54 3.82l337.45 0c13.53,0 22.03,11.07 18.87,24.61l-12.72 54.61c-3.16,13.54 -16.81,24.61 -30.35,24.61l-337.45 0c-13.53,0 -22.03,-11.07 -18.87,-24.61l12.72 -54.61c3.16,-13.54 16.81,-24.61 30.35,-24.61z"/>
   <path id="_1" class="fil1" d="M384.99 7.64l-337.45 0 0 -7.64 337.45 0 0 0 0 7.64zm22.59 21.66l-7.43 -1.74 0 0 0.22 -1.08 0.17 -1.05 0.1 -1.04 0.06 -1.01 0 -0.98 -0.05 -0.97 -0.1 -0.93 -0.15 -0.91 -0.19 -0.88 -0.24 -0.85 -0.29 -0.82 -0.32 -0.79 -0.37 -0.77 -0.4 -0.73 -0.45 -0.7 -0.48 -0.68 -0.52 -0.63 -0.56 -0.61 -0.6 -0.58 -0.63 -0.53 -0.67 -0.51 -0.7 -0.47 -0.74 -0.43 -0.77 -0.39 -0.81 -0.36 -0.85 -0.31 -0.88 -0.27 -0.92 -0.22 -0.95 -0.18 -0.99 -0.13 -1.02 -0.08 -1.06 -0.03 0 -7.64 1.45 0.04 1.42 0.11 1.39 0.18 1.37 0.26 1.33 0.33 1.29 0.39 1.26 0.46 1.22 0.54 1.17 0.59 1.13 0.66 1.08 0.72 1.03 0.78 0.98 0.84 0.92 0.89 0.87 0.94 0.81 0.99 0.75 1.04 0.69 1.09 0.62 1.13 0.56 1.17 0.5 1.2 0.42 1.24 0.36 1.27 0.29 1.3 0.21 1.32 0.15 1.35 0.07 1.37 0 1.39 -0.08 1.41 -0.15 1.42 -0.22 1.44 -0.3 1.44 0 0zm-20.16 52.87l12.73 -54.61 7.43 1.74 -12.73 54.61 -7.43 -1.74zm-26.63 29.3l0 -7.64 0 0 1.08 -0.02 1.08 -0.08 1.08 -0.14 1.08 -0.19 1.09 -0.23 1.08 -0.29 1.07 -0.34 1.07 -0.39 1.06 -0.44 1.05 -0.48 1.03 -0.52 1.02 -0.57 1 -0.61 0.98 -0.65 0.96 -0.7 0.93 -0.72 0.91 -0.77 0.88 -0.79 0.84 -0.83 0.82 -0.86 0.77 -0.89 0.75 -0.92 0.7 -0.94 0.66 -0.96 0.62 -0.99 0.58 -1 0.53 -1.02 0.48 -1.04 0.43 -1.05 0.39 -1.07 0.33 -1.07 0.28 -1.09 7.43 1.74 -0.37 1.44 -0.44 1.41 -0.5 1.4 -0.56 1.36 -0.63 1.34 -0.67 1.31 -0.74 1.28 -0.78 1.25 -0.84 1.21 -0.88 1.19 -0.93 1.14 -0.97 1.11 -1.01 1.07 -1.05 1.03 -1.09 0.99 -1.13 0.95 -1.16 0.91 -1.19 0.86 -1.22 0.81 -1.26 0.76 -1.27 0.72 -1.31 0.66 -1.33 0.61 -1.35 0.56 -1.37 0.49 -1.39 0.44 -1.4 0.38 -1.42 0.31 -1.44 0.25 -1.44 0.18 -1.46 0.11 -1.46 0.03 0 0zm-337.45 -7.64l337.45 0 0 7.64 -337.45 0 0 0 0 -7.64zm-22.59 -21.66l7.43 1.74 0 0 -0.22 1.08 -0.17 1.06 -0.1 1.03 -0.06 1.01 0 0.99 0.05 0.96 0.1 0.93 0.15 0.91 0.19 0.88 0.24 0.85 0.29 0.82 0.32 0.8 0.37 0.76 0.4 0.74 0.45 0.7 0.48 0.67 0.52 0.64 0.56 0.61 0.6 0.57 0.63 0.54 0.67 0.5 0.7 0.47 0.74 0.43 0.77 0.4 0.81 0.35 0.85 0.31 0.88 0.27 0.92 0.23 0.95 0.18 0.99 0.13 1.02 0.08 1.06 0.02 0 7.64 -1.45 -0.03 -1.42 -0.11 -1.39 -0.19 -1.37 -0.25 -1.33 -0.33 -1.29 -0.4 -1.26 -0.46 -1.22 -0.53 -1.17 -0.6 -1.13 -0.66 -1.08 -0.72 -1.03 -0.78 -0.98 -0.83 -0.92 -0.89 -0.87 -0.95 -0.81 -0.99 -0.75 -1.04 -0.69 -1.09 -0.62 -1.12 -0.56 -1.17 -0.5 -1.21 -0.42 -1.23 -0.36 -1.27 -0.29 -1.3 -0.21 -1.33 -0.15 -1.35 -0.07 -1.37 0 -1.39 0.08 -1.41 0.15 -1.42 0.22 -1.43 0.3 -1.45 0 0zm20.16 -52.87l-12.73 54.61 -7.43 -1.74 12.73 -54.61 0 0 7.43 1.74zm26.63 -29.3l0 7.64 0 0 -1.08 0.03 -1.08 0.08 -1.08 0.13 -1.08 0.19 -1.09 0.24 -1.08 0.29 -1.08 0.34 -1.06 0.38 -1.06 0.44 -1.05 0.48 -1.03 0.53 -1.02 0.57 -1 0.61 -0.98 0.65 -0.96 0.69 -0.93 0.73 -0.91 0.76 -0.88 0.8 -0.84 0.83 -0.82 0.86 -0.78 0.89 -0.74 0.91 -0.7 0.94 -0.66 0.97 -0.62 0.98 -0.58 1 -0.53 1.03 -0.48 1.03 -0.43 1.06 -0.39 1.06 -0.33 1.07 -0.28 1.09 -7.43 -1.74 0.37 -1.43 0.44 -1.42 0.5 -1.39 0.56 -1.37 0.63 -1.34 0.67 -1.31 0.74 -1.28 0.78 -1.25 0.84 -1.21 0.88 -1.18 0.93 -1.15 0.97 -1.11 1.01 -1.07 1.05 -1.03 1.09 -0.99 1.13 -0.95 1.16 -0.9 1.19 -0.86 1.22 -0.82 1.26 -0.76 1.27 -0.71 1.31 -0.67 1.33 -0.61 1.35 -0.55 1.37 -0.5 1.39 -0.44 1.4 -0.37 1.42 -0.32 1.44 -0.24 1.44 -0.18 1.46 -0.11 1.46 -0.04 0 0z"/>
  </g>
  <path class="fil2 str0" d="M142.63 79.29l-7.09 -13.52c-0.71,-1.34 -1.38,-2.45 -2.04,-3.35 -0.65,-0.91 -1.34,-1.62 -2.03,-2.16 -0.7,-0.53 -1.45,-0.92 -2.24,-1.15 -0.81,-0.23 -1.7,-0.35 -2.68,-0.35l-5.19 0 0 20.53 -4.37 0 0 -47.11 13.56 0c1.77,0 3.49,0.26 5.15,0.79 1.65,0.53 3.12,1.3 4.41,2.33 1.29,1.03 2.33,2.32 3.1,3.87 0.78,1.56 1.17,3.37 1.17,5.42 0,1.66 -0.25,3.19 -0.75,4.6 -0.51,1.39 -1.22,2.63 -2.16,3.72 -0.93,1.08 -2.05,2 -3.37,2.75 -1.34,0.76 -2.83,1.32 -4.49,1.69l0 0.14c0.64,0.25 1.21,0.6 1.74,1.02 0.53,0.41 1.03,0.92 1.53,1.51 0.49,0.58 0.97,1.27 1.45,2.03 0.49,0.78 0.99,1.65 1.51,2.64l7.9 14.6 -5.11 0zm-21.27 -43.07l0 18.57 7.81 0c1.58,0 3.02,-0.22 4.33,-0.68 1.31,-0.46 2.43,-1.12 3.36,-1.97 0.94,-0.85 1.65,-1.88 2.17,-3.08 0.51,-1.2 0.77,-2.55 0.77,-4.06 0,-2.73 -0.87,-4.88 -2.63,-6.44 -1.76,-1.55 -4.31,-2.34 -7.64,-2.34l-8.17 0zm35.7 43.74c-0.87,0 -1.62,-0.3 -2.23,-0.92 -0.61,-0.6 -0.92,-1.35 -0.92,-2.23 0,-0.88 0.31,-1.65 0.9,-2.25 0.61,-0.62 1.36,-0.92 2.25,-0.92 0.44,0 0.85,0.08 1.23,0.24 0.38,0.17 0.71,0.39 1,0.65 0.29,0.29 0.51,0.61 0.69,1 0.17,0.41 0.26,0.83 0.26,1.28 0,0.44 -0.09,0.85 -0.26,1.24 -0.18,0.38 -0.4,0.71 -0.69,0.99 -0.29,0.28 -0.62,0.51 -1,0.68 -0.38,0.16 -0.79,0.24 -1.23,0.24zm11.67 -7.58c0.78,0.6 1.66,1.12 2.61,1.59 0.94,0.47 1.92,0.87 2.92,1.19 0.99,0.32 1.99,0.55 2.99,0.72 1.01,0.17 1.98,0.25 2.9,0.25 3.55,0 6.22,-0.69 7.99,-2.07 1.78,-1.38 2.66,-3.35 2.66,-5.93 0,-1.24 -0.21,-2.34 -0.63,-3.27 -0.41,-0.94 -1.05,-1.8 -1.93,-2.62 -0.88,-0.81 -1.98,-1.61 -3.32,-2.41 -1.33,-0.8 -2.91,-1.7 -4.73,-2.71 -2.01,-1.1 -3.73,-2.13 -5.17,-3.11 -1.43,-0.98 -2.6,-1.97 -3.51,-3 -0.91,-1.02 -1.58,-2.12 -2.01,-3.29 -0.42,-1.19 -0.64,-2.54 -0.64,-4.05 0,-1.91 0.41,-3.61 1.21,-5.13 0.82,-1.51 1.91,-2.8 3.29,-3.86 1.38,-1.06 3,-1.88 4.85,-2.45 1.85,-0.57 3.82,-0.85 5.92,-0.85 3.7,0 6.81,0.51 9.3,1.54l0 4.83c-2.79,-1.61 -6.04,-2.4 -9.78,-2.4 -1.41,0 -2.72,0.16 -3.96,0.5 -1.24,0.35 -2.31,0.84 -3.24,1.5 -0.94,0.67 -1.68,1.48 -2.2,2.46 -0.54,0.98 -0.81,2.11 -0.81,3.4 0,1.23 0.18,2.29 0.54,3.17 0.37,0.89 0.94,1.73 1.75,2.51 0.79,0.8 1.84,1.59 3.15,2.36 1.3,0.77 2.89,1.67 4.78,2.68 1.96,1.06 3.69,2.08 5.15,3.07 1.46,1 2.69,2.05 3.66,3.12 0.98,1.09 1.71,2.25 2.19,3.46 0.48,1.22 0.72,2.57 0.72,4.06 0,2.06 -0.38,3.87 -1.15,5.44 -0.77,1.57 -1.84,2.87 -3.21,3.9 -1.38,1.02 -3.02,1.81 -4.93,2.33 -1.91,0.53 -3.99,0.79 -6.27,0.79 -0.74,0 -1.63,-0.06 -2.66,-0.18 -1.03,-0.12 -2.06,-0.3 -3.12,-0.53 -1.05,-0.23 -2.05,-0.51 -3,-0.83 -0.95,-0.32 -1.72,-0.67 -2.31,-1.04l0 -5.14zm40.79 6.91l-4.37 0 0 -47.11 4.37 0 0 47.11zm46.91 -3.27c-4.85,2.72 -9.99,4.08 -15.4,4.08 -3.42,0 -6.5,-0.59 -9.22,-1.76 -2.72,-1.17 -5.04,-2.81 -6.95,-4.89 -1.9,-2.1 -3.37,-4.59 -4.39,-7.5 -1.02,-2.9 -1.53,-6.09 -1.53,-9.57 0,-2.3 0.25,-4.51 0.74,-6.64 0.5,-2.12 1.23,-4.12 2.18,-5.98 0.95,-1.86 2.12,-3.55 3.5,-5.06 1.39,-1.52 2.97,-2.82 4.75,-3.9 1.8,-1.1 3.77,-1.94 5.91,-2.54 2.16,-0.59 4.48,-0.88 6.96,-0.88 4.66,0 8.84,0.83 12.5,2.49l0 4.82c-4.03,-2.23 -8.37,-3.34 -13.03,-3.34 -2.88,0 -5.47,0.52 -7.8,1.58 -2.33,1.04 -4.31,2.49 -5.95,4.33 -1.63,1.84 -2.89,4.01 -3.8,6.52 -0.9,2.52 -1.36,5.23 -1.38,8.17 -0.02,2.92 0.36,5.61 1.13,8.06 0.79,2.47 1.94,4.6 3.48,6.4 1.54,1.79 3.43,3.19 5.68,4.2 2.27,1.01 4.88,1.52 7.85,1.52 3.99,0 7.45,-0.83 10.39,-2.5l0 -14.39 -10.7 0 0 -3.97 15.08 0 0 20.75zm10.89 3.27l0 -47.11 22.97 0 0 4.04 -18.6 0 0 17.23 17.23 0 0 3.97 -17.23 0 0 17.9 19.65 0 0 3.97 -24.02 0z"/>
 </g>
</svg>
