<?xml version="1.0" encoding="UTF-8"?>
<!DOCTYPE svg PUBLIC "-//W3C//DTD SVG 1.1//EN" "http://www.w3.org/Graphics/SVG/1.1/DTD/svg11.dtd">
<!-- Creator: CorelDRAW -->
<svg xmlns="http://www.w3.org/2000/svg" xml:space="preserve" width="889px" height="244px" version="1.1" style="shape-rendering:geometricPrecision; text-rendering:geometricPrecision; image-rendering:optimizeQuality; fill-rule:evenodd; clip-rule:evenodd"
viewBox="0 0 415.35 114.12"
 xmlns:xlink="http://www.w3.org/1999/xlink"
 xmlns:xodm="http://www.corel.com/coreldraw/odm/2003">
 <defs>
  <style type="text/css">
   <![CDATA[
    .str0 {stroke:black;stroke-width:0.42;stroke-miterlimit:22.9256}
    .fil0 {fill:white}
    .fil2 {fill:black;fill-rule:nonzero}
    .fil1 {fill:black;fill-rule:nonzero}
   ]]>
  </style>
 </defs>
 <g id="Capa_x0020_1">
  <metadata id="CorelCorpID_0Corel-Layer"/>
  <g>
   <path class="fil0" d="M47.34 3.91l345.44 0c13.86,0 22.56,11.34 19.33,25.2l-13.03 55.9c-3.23,13.86 -17.21,25.2 -31.07,25.2l-345.45 0c-13.85,0 -22.55,-11.34 -19.32,-25.2l13.03 -55.9c3.23,-13.86 17.21,-25.2 31.07,-25.2z"/>
   <path id="_1" class="fil1" d="M392.78 7.82l-345.45 0 0.01 -7.82 345.45 0 0 0 -0.01 7.82zm21.75 22.59l-4.85 -2.6 0 0 0.21 -1.03 0.16 -1 0.1 -0.96 0.05 -0.93 0 -0.9 -0.05 -0.88 -0.09 -0.85 -0.14 -0.84 -0.18 -0.82 -0.22 -0.8 -0.27 -0.79 -0.32 -0.78 -0.37 -0.76 -0.41 -0.75 -0.47 -0.73 -0.51 -0.71 -0.56 -0.69 -0.61 -0.66 -0.66 -0.64 -0.71 -0.61 -0.76 -0.57 -0.8 -0.53 -0.84 -0.5 -0.9 -0.45 -0.93 -0.4 -0.97 -0.36 -1.02 -0.32 -1.05 -0.25 -1.1 -0.21 -1.12 -0.15 -1.17 -0.09 -1.19 -0.03 0.01 -7.82 1.37 0.04 1.34 0.1 1.31 0.17 1.28 0.24 1.25 0.31 1.21 0.37 1.18 0.44 1.14 0.49 1.1 0.56 1.07 0.63 1.02 0.68 0.99 0.74 0.94 0.81 0.89 0.86 0.85 0.92 0.8 0.98 0.75 1.04 0.7 1.1 0.64 1.16 0.58 1.22 0.52 1.26 0.45 1.32 0.39 1.37 0.31 1.41 0.24 1.46 0.16 1.48 0.08 1.51 0 1.53 -0.09 1.54 -0.16 1.56 -0.24 1.55 -0.33 1.56 0 0zm-17.88 53.3l13.03 -55.9 4.85 2.6 -13.02 55.9 -4.86 -2.6zm-28.64 30.41l0 -7.82 0 0 1.22 -0.03 1.21 -0.1 1.22 -0.15 1.2 -0.2 1.21 -0.27 1.2 -0.32 1.18 -0.37 1.18 -0.43 1.15 -0.48 1.15 -0.52 1.12 -0.57 1.11 -0.62 1.08 -0.66 1.05 -0.7 1.03 -0.74 1 -0.78 0.97 -0.82 0.93 -0.85 0.9 -0.87 0.85 -0.91 0.82 -0.94 0.78 -0.96 0.73 -0.98 0.69 -1 0.64 -1.01 0.59 -1.03 0.54 -1.04 0.48 -1.04 0.44 -1.05 0.37 -1.05 0.33 -1.05 0.27 -1.05 4.86 2.6 -0.4 1.54 -0.46 1.5 -0.53 1.46 -0.59 1.43 -0.65 1.38 -0.7 1.35 -0.75 1.31 -0.8 1.27 -0.84 1.24 -0.89 1.19 -0.94 1.15 -0.97 1.11 -1.01 1.07 -1.05 1.02 -1.08 0.99 -1.11 0.93 -1.14 0.9 -1.17 0.84 -1.2 0.8 -1.23 0.75 -1.25 0.69 -1.27 0.65 -1.28 0.59 -1.31 0.54 -1.32 0.48 -1.34 0.42 -1.35 0.36 -1.36 0.3 -1.37 0.24 -1.38 0.17 -1.38 0.1 -1.38 0.04 0 0zm-345.44 -7.82l345.44 0 0 7.82 -345.45 0 0 0 0.01 -7.82zm-21.76 -22.59l4.86 2.6 0 0 -0.22 1.03 -0.15 0.99 -0.1 0.97 -0.05 0.93 0 0.9 0.04 0.88 0.1 0.85 0.13 0.84 0.18 0.81 0.23 0.81 0.27 0.79 0.32 0.77 0.36 0.77 0.42 0.75 0.46 0.73 0.51 0.71 0.57 0.69 0.61 0.66 0.66 0.64 0.71 0.6 0.75 0.57 0.8 0.54 0.85 0.49 0.89 0.45 0.93 0.41 0.98 0.36 1.02 0.31 1.05 0.26 1.09 0.21 1.13 0.15 1.16 0.09 1.2 0.03 -0.01 7.82 -1.37 -0.04 -1.34 -0.1 -1.31 -0.18 -1.28 -0.24 -1.25 -0.3 -1.21 -0.37 -1.18 -0.44 -1.14 -0.5 -1.11 -0.56 -1.06 -0.62 -1.03 -0.68 -0.98 -0.75 -0.94 -0.8 -0.89 -0.86 -0.85 -0.92 -0.81 -0.99 -0.75 -1.04 -0.69 -1.1 -0.64 -1.15 -0.58 -1.22 -0.53 -1.27 -0.45 -1.32 -0.38 -1.37 -0.32 -1.41 -0.23 -1.45 -0.16 -1.48 -0.08 -1.51 0 -1.53 0.08 -1.55 0.17 -1.55 0.24 -1.55 0.32 -1.56 0 0zm17.89 -53.3l-13.03 55.9 -4.86 -2.6 13.03 -55.9 0 0 4.86 2.6zm28.64 -30.41l-0.01 7.82 0 0 -1.21 0.03 -1.22 0.09 -1.21 0.15 -1.21 0.21 -1.2 0.27 -1.2 0.32 -1.18 0.37 -1.18 0.43 -1.16 0.47 -1.14 0.53 -1.13 0.57 -1.1 0.62 -1.08 0.66 -1.06 0.7 -1.02 0.74 -1 0.78 -0.97 0.81 -0.93 0.85 -0.9 0.88 -0.86 0.91 -0.82 0.94 -0.77 0.95 -0.74 0.98 -0.68 1 -0.64 1.02 -0.59 1.03 -0.54 1.03 -0.49 1.05 -0.43 1.05 -0.38 1.05 -0.32 1.05 -0.27 1.05 -4.86 -2.6 0.4 -1.54 0.46 -1.5 0.53 -1.46 0.59 -1.43 0.64 -1.39 0.7 -1.35 0.75 -1.31 0.8 -1.27 0.85 -1.23 0.89 -1.19 0.93 -1.15 0.97 -1.11 1.01 -1.07 1.05 -1.03 1.08 -0.98 1.11 -0.94 1.15 -0.89 1.17 -0.84 1.2 -0.8 1.22 -0.75 1.25 -0.7 1.27 -0.64 1.29 -0.59 1.31 -0.54 1.32 -0.48 1.34 -0.42 1.35 -0.36 1.36 -0.3 1.37 -0.24 1.37 -0.17 1.38 -0.1 1.39 -0.04 0 0z"/>
  </g>
  <path class="fil2 str0" d="M144.68 81.17l-7.26 -13.84c-0.72,-1.37 -1.41,-2.51 -2.09,-3.43 -0.66,-0.93 -1.36,-1.66 -2.08,-2.21 -0.71,-0.54 -1.48,-0.95 -2.29,-1.18 -0.83,-0.24 -1.74,-0.35 -2.75,-0.35l-5.3 0 0 21.01 -4.48 0 0 -48.22 13.88 0c1.82,0 3.57,0.26 5.27,0.8 1.69,0.54 3.19,1.33 4.51,2.39 1.33,1.05 2.39,2.37 3.19,3.96 0.79,1.59 1.19,3.44 1.19,5.54 0,1.7 -0.25,3.28 -0.77,4.71 -0.52,1.43 -1.25,2.7 -2.2,3.81 -0.96,1.11 -2.11,2.05 -3.46,2.82 -1.37,0.78 -2.89,1.35 -4.59,1.73l0 0.14c0.65,0.26 1.24,0.62 1.78,1.04 0.54,0.43 1.05,0.95 1.56,1.55 0.5,0.6 1,1.3 1.49,2.08 0.49,0.79 1.01,1.69 1.54,2.7l8.09 14.95 -5.23 0zm-21.77 -44.09l0 19.01 7.99 0c1.62,0 3.09,-0.23 4.43,-0.7 1.35,-0.47 2.49,-1.14 3.45,-2.02 0.95,-0.86 1.68,-1.92 2.21,-3.14 0.53,-1.23 0.8,-2.62 0.8,-4.16 0,-2.8 -0.9,-5 -2.7,-6.59 -1.81,-1.6 -4.41,-2.4 -7.82,-2.4l-8.36 0zm36.55 44.78c-0.9,0 -1.67,-0.31 -2.29,-0.94 -0.63,-0.62 -0.94,-1.39 -0.94,-2.29 0,-0.9 0.31,-1.68 0.92,-2.3 0.62,-0.64 1.39,-0.95 2.31,-0.95 0.44,0 0.86,0.08 1.25,0.26 0.39,0.17 0.73,0.39 1.02,0.66 0.3,0.29 0.53,0.62 0.71,1.02 0.17,0.42 0.27,0.85 0.27,1.31 0,0.45 -0.1,0.88 -0.27,1.27 -0.18,0.39 -0.41,0.73 -0.71,1.02 -0.29,0.28 -0.63,0.51 -1.02,0.69 -0.39,0.17 -0.81,0.25 -1.25,0.25zm11.94 -7.76c0.8,0.61 1.7,1.15 2.67,1.63 0.97,0.48 1.97,0.88 2.99,1.22 1.01,0.32 2.04,0.56 3.06,0.73 1.04,0.17 2.02,0.25 2.96,0.25 3.64,0 6.38,-0.7 8.19,-2.11 1.82,-1.41 2.72,-3.43 2.72,-6.07 0,-1.28 -0.21,-2.4 -0.64,-3.36 -0.42,-0.95 -1.08,-1.83 -1.97,-2.67 -0.91,-0.83 -2.04,-1.66 -3.4,-2.47 -1.37,-0.82 -2.99,-1.75 -4.85,-2.78 -2.05,-1.12 -3.82,-2.18 -5.29,-3.18 -1.47,-1 -2.67,-2.02 -3.6,-3.07 -0.93,-1.04 -1.61,-2.17 -2.05,-3.37 -0.44,-1.22 -0.66,-2.6 -0.66,-4.15 0,-1.95 0.42,-3.69 1.24,-5.24 0.84,-1.55 1.96,-2.87 3.37,-3.95 1.41,-1.09 3.06,-1.93 4.96,-2.52 1.89,-0.58 3.91,-0.87 6.06,-0.87 3.79,0 6.97,0.53 9.52,1.58l0 4.94c-2.85,-1.64 -6.18,-2.46 -10.01,-2.46 -1.44,0 -2.78,0.18 -4.06,0.52 -1.26,0.36 -2.36,0.86 -3.31,1.54 -0.96,0.68 -1.71,1.51 -2.25,2.51 -0.56,1 -0.83,2.16 -0.83,3.48 0,1.27 0.18,2.34 0.55,3.25 0.38,0.91 0.96,1.77 1.79,2.57 0.82,0.82 1.88,1.62 3.23,2.42 1.33,0.79 2.96,1.71 4.89,2.74 2.01,1.08 3.78,2.12 5.27,3.15 1.5,1.02 2.76,2.09 3.75,3.19 1,1.11 1.75,2.29 2.24,3.53 0.5,1.26 0.74,2.63 0.74,4.16 0,2.11 -0.39,3.96 -1.17,5.57 -0.8,1.61 -1.89,2.94 -3.3,3.99 -1.41,1.05 -3.09,1.85 -5.04,2.39 -1.95,0.54 -4.09,0.81 -6.42,0.81 -0.76,0 -1.66,-0.06 -2.72,-0.19 -1.06,-0.12 -2.11,-0.31 -3.19,-0.54 -1.08,-0.24 -2.1,-0.52 -3.08,-0.85 -0.97,-0.33 -1.75,-0.69 -2.36,-1.06l0 -5.26zm41.76 7.07l-4.48 0 0 -48.22 4.48 0 0 48.22zm48.01 -3.35c-4.96,2.79 -10.21,4.18 -15.76,4.18 -3.5,0 -6.65,-0.6 -9.44,-1.81 -2.78,-1.19 -5.15,-2.87 -7.11,-5 -1.95,-2.15 -3.45,-4.7 -4.5,-7.67 -1.04,-2.98 -1.56,-6.24 -1.56,-9.81 0,-2.35 0.25,-4.61 0.76,-6.79 0.5,-2.17 1.25,-4.22 2.23,-6.12 0.97,-1.91 2.17,-3.63 3.58,-5.18 1.42,-1.55 3.04,-2.88 4.87,-4 1.83,-1.12 3.86,-1.99 6.05,-2.59 2.2,-0.61 4.58,-0.91 7.12,-0.91 4.77,0 9.04,0.85 12.8,2.55l0 4.94c-4.13,-2.29 -8.58,-3.43 -13.34,-3.43 -2.95,0 -5.61,0.54 -7.99,1.62 -2.38,1.07 -4.41,2.55 -6.09,4.43 -1.66,1.89 -2.96,4.12 -3.89,6.69 -0.92,2.57 -1.39,5.35 -1.41,8.36 -0.03,2.98 0.36,5.74 1.16,8.25 0.8,2.53 1.98,4.71 3.56,6.55 1.57,1.83 3.51,3.27 5.82,4.3 2.32,1.04 4.99,1.55 8.02,1.55 4.09,0 7.64,-0.85 10.65,-2.56l0 -14.73 -10.96 0 0 -4.06 15.43 0 0 21.24zm11.15 3.35l0 -48.22 23.52 0 0 4.13 -19.04 0 0 17.64 17.64 0 0 4.06 -17.64 0 0 18.33 20.12 0 0 4.06 -24.6 0z"/>
 </g>
</svg>
